<svg xmlns="http://www.w3.org/2000/svg" width="172" height="84" viewBox="0 0 172 84">
  <g id="dots2" transform="translate(-17 -779)">
    <g id="dots2-2" data-name="dots2" transform="translate(17 779)">
      <g id="dots2-3" data-name="dots2">
        <circle id="Ellipse_345" data-name="Ellipse 345" cx="5" cy="5" r="5" fill="#8b3432"/>
        <circle id="Ellipse_346" data-name="Ellipse 346" cx="5" cy="5" r="5" transform="translate(15)" fill="#8b3432"/>
        <circle id="Ellipse_347" data-name="Ellipse 347" cx="5" cy="5" r="5" transform="translate(0 15)" fill="#8b3432"/>
        <circle id="Ellipse_348" data-name="Ellipse 348" cx="5" cy="5" r="5" transform="translate(15 15)" fill="#8b3432"/>
        <circle id="Ellipse_349" data-name="Ellipse 349" cx="5" cy="5" r="5" transform="translate(0 30)" fill="#8b3432"/>
        <circle id="Ellipse_350" data-name="Ellipse 350" cx="5" cy="5" r="5" transform="translate(15 30)" fill="#8b3432"/>
        <circle id="Ellipse_351" data-name="Ellipse 351" cx="5" cy="5" r="5" transform="translate(0 45)" fill="#8b3432"/>
        <circle id="Ellipse_352" data-name="Ellipse 352" cx="5" cy="5" r="5" transform="translate(15 45)" fill="#8b3432"/>
        <circle id="Ellipse_353" data-name="Ellipse 353" cx="5" cy="5" r="5" transform="translate(0 59)" fill="#8b3432"/>
        <circle id="Ellipse_354" data-name="Ellipse 354" cx="5" cy="5" r="5" transform="translate(15 59)" fill="#8b3432"/>
        <circle id="Ellipse_355" data-name="Ellipse 355" cx="5" cy="5" r="5" transform="translate(0 74)" fill="#8b3432"/>
        <circle id="Ellipse_356" data-name="Ellipse 356" cx="5" cy="5" r="5" transform="translate(15 74)" fill="#8b3432"/>
      </g>
      <g id="dots2-4" data-name="dots2" transform="translate(29.239)">
        <circle id="Ellipse_345-2" data-name="Ellipse 345" cx="5" cy="5" r="5" transform="translate(-0.239)" fill="#8b3432"/>
        <circle id="Ellipse_346-2" data-name="Ellipse 346" cx="5" cy="5" r="5" transform="translate(14.761)" fill="#8b3432"/>
        <circle id="Ellipse_347-2" data-name="Ellipse 347" cx="5" cy="5" r="5" transform="translate(-0.239 15)" fill="#8b3432"/>
        <circle id="Ellipse_348-2" data-name="Ellipse 348" cx="5" cy="5" r="5" transform="translate(14.761 15)" fill="#8b3432"/>
        <circle id="Ellipse_349-2" data-name="Ellipse 349" cx="5" cy="5" r="5" transform="translate(-0.239 30)" fill="#8b3432"/>
        <circle id="Ellipse_350-2" data-name="Ellipse 350" cx="5" cy="5" r="5" transform="translate(14.761 30)" fill="#8b3432"/>
        <circle id="Ellipse_351-2" data-name="Ellipse 351" cx="5" cy="5" r="5" transform="translate(-0.239 45)" fill="#8b3432"/>
        <circle id="Ellipse_352-2" data-name="Ellipse 352" cx="5" cy="5" r="5" transform="translate(14.761 45)" fill="#8b3432"/>
        <circle id="Ellipse_353-2" data-name="Ellipse 353" cx="5" cy="5" r="5" transform="translate(-0.239 59)" fill="#8b3432"/>
        <circle id="Ellipse_354-2" data-name="Ellipse 354" cx="5" cy="5" r="5" transform="translate(14.761 59)" fill="#8b3432"/>
        <circle id="Ellipse_355-2" data-name="Ellipse 355" cx="5" cy="5" r="5" transform="translate(-0.239 74)" fill="#8b3432"/>
        <circle id="Ellipse_356-2" data-name="Ellipse 356" cx="5" cy="5" r="5" transform="translate(14.761 74)" fill="#8b3432"/>
      </g>
      <g id="dots2-5" data-name="dots2" transform="translate(58.478)">
        <circle id="Ellipse_345-3" data-name="Ellipse 345" cx="5" cy="5" r="5" transform="translate(-0.478)" fill="#8b3432"/>
        <circle id="Ellipse_346-3" data-name="Ellipse 346" cx="5" cy="5" r="5" transform="translate(14.522)" fill="#8b3432"/>
        <circle id="Ellipse_347-3" data-name="Ellipse 347" cx="5" cy="5" r="5" transform="translate(-0.478 15)" fill="#8b3432"/>
        <circle id="Ellipse_348-3" data-name="Ellipse 348" cx="5" cy="5" r="5" transform="translate(14.522 15)" fill="#8b3432"/>
        <circle id="Ellipse_349-3" data-name="Ellipse 349" cx="5" cy="5" r="5" transform="translate(-0.478 30)" fill="#8b3432"/>
        <circle id="Ellipse_350-3" data-name="Ellipse 350" cx="5" cy="5" r="5" transform="translate(14.522 30)" fill="#8b3432"/>
        <circle id="Ellipse_351-3" data-name="Ellipse 351" cx="5" cy="5" r="5" transform="translate(-0.478 45)" fill="#8b3432"/>
        <circle id="Ellipse_352-3" data-name="Ellipse 352" cx="5" cy="5" r="5" transform="translate(14.522 45)" fill="#8b3432"/>
        <circle id="Ellipse_353-3" data-name="Ellipse 353" cx="5" cy="5" r="5" transform="translate(-0.478 59)" fill="#8b3432"/>
        <circle id="Ellipse_354-3" data-name="Ellipse 354" cx="5" cy="5" r="5" transform="translate(14.522 59)" fill="#8b3432"/>
        <circle id="Ellipse_355-3" data-name="Ellipse 355" cx="5" cy="5" r="5" transform="translate(-0.478 74)" fill="#8b3432"/>
        <circle id="Ellipse_356-3" data-name="Ellipse 356" cx="5" cy="5" r="5" transform="translate(14.522 74)" fill="#8b3432"/>
      </g>
    </g>
    <g id="dots2-6" data-name="dots2" transform="translate(105.708 779)">
      <g id="dots2-7" data-name="dots2" transform="translate(0)">
        <circle id="Ellipse_345-4" data-name="Ellipse 345" cx="5" cy="5" r="5" transform="translate(0.292)" fill="#8b3432"/>
        <ellipse id="Ellipse_346-4" data-name="Ellipse 346" cx="4.5" cy="5" rx="4.5" ry="5" transform="translate(15.292)" fill="#8b3432"/>
        <circle id="Ellipse_347-4" data-name="Ellipse 347" cx="5" cy="5" r="5" transform="translate(0.292 15)" fill="#8b3432"/>
        <ellipse id="Ellipse_348-4" data-name="Ellipse 348" cx="4.5" cy="5" rx="4.5" ry="5" transform="translate(15.292 15)" fill="#8b3432"/>
        <circle id="Ellipse_349-4" data-name="Ellipse 349" cx="5" cy="5" r="5" transform="translate(0.292 30)" fill="#8b3432"/>
        <ellipse id="Ellipse_350-4" data-name="Ellipse 350" cx="4.5" cy="5" rx="4.5" ry="5" transform="translate(15.292 30)" fill="#8b3432"/>
        <circle id="Ellipse_351-4" data-name="Ellipse 351" cx="5" cy="5" r="5" transform="translate(0.292 45)" fill="#8b3432"/>
        <ellipse id="Ellipse_352-4" data-name="Ellipse 352" cx="4.5" cy="5" rx="4.5" ry="5" transform="translate(15.292 45)" fill="#8b3432"/>
        <circle id="Ellipse_353-4" data-name="Ellipse 353" cx="5" cy="5" r="5" transform="translate(0.292 59)" fill="#8b3432"/>
        <ellipse id="Ellipse_354-4" data-name="Ellipse 354" cx="4.5" cy="5" rx="4.5" ry="5" transform="translate(15.292 59)" fill="#8b3432"/>
        <circle id="Ellipse_355-4" data-name="Ellipse 355" cx="5" cy="5" r="5" transform="translate(0.292 74)" fill="#8b3432"/>
        <ellipse id="Ellipse_356-4" data-name="Ellipse 356" cx="4.5" cy="5" rx="4.5" ry="5" transform="translate(15.292 74)" fill="#8b3432"/>
      </g>
      <g id="dots2-8" data-name="dots2" transform="translate(29.239)">
        <circle id="Ellipse_345-5" data-name="Ellipse 345" cx="5" cy="5" r="5" transform="translate(0.053)" fill="#8b3432"/>
        <circle id="Ellipse_346-5" data-name="Ellipse 346" cx="5" cy="5" r="5" transform="translate(15.053)" fill="#8b3432"/>
        <circle id="Ellipse_347-5" data-name="Ellipse 347" cx="5" cy="5" r="5" transform="translate(0.053 15)" fill="#8b3432"/>
        <circle id="Ellipse_348-5" data-name="Ellipse 348" cx="5" cy="5" r="5" transform="translate(15.053 15)" fill="#8b3432"/>
        <circle id="Ellipse_349-5" data-name="Ellipse 349" cx="5" cy="5" r="5" transform="translate(0.053 30)" fill="#8b3432"/>
        <circle id="Ellipse_350-5" data-name="Ellipse 350" cx="5" cy="5" r="5" transform="translate(15.053 30)" fill="#8b3432"/>
        <circle id="Ellipse_351-5" data-name="Ellipse 351" cx="5" cy="5" r="5" transform="translate(0.053 45)" fill="#8b3432"/>
        <circle id="Ellipse_352-5" data-name="Ellipse 352" cx="5" cy="5" r="5" transform="translate(15.053 45)" fill="#8b3432"/>
        <circle id="Ellipse_353-5" data-name="Ellipse 353" cx="5" cy="5" r="5" transform="translate(0.053 59)" fill="#8b3432"/>
        <circle id="Ellipse_354-5" data-name="Ellipse 354" cx="5" cy="5" r="5" transform="translate(15.053 59)" fill="#8b3432"/>
        <circle id="Ellipse_355-5" data-name="Ellipse 355" cx="5" cy="5" r="5" transform="translate(0.053 74)" fill="#8b3432"/>
        <circle id="Ellipse_356-5" data-name="Ellipse 356" cx="5" cy="5" r="5" transform="translate(15.053 74)" fill="#8b3432"/>
      </g>
      <g id="dots2-9" data-name="dots2" transform="translate(58.478)">
        <circle id="Ellipse_345-6" data-name="Ellipse 345" cx="5" cy="5" r="5" transform="translate(-0.186)" fill="#8b3432"/>
        <circle id="Ellipse_346-6" data-name="Ellipse 346" cx="5" cy="5" r="5" transform="translate(14.814)" fill="#8b3432"/>
        <circle id="Ellipse_347-6" data-name="Ellipse 347" cx="5" cy="5" r="5" transform="translate(-0.186 15)" fill="#8b3432"/>
        <circle id="Ellipse_348-6" data-name="Ellipse 348" cx="5" cy="5" r="5" transform="translate(14.814 15)" fill="#8b3432"/>
        <circle id="Ellipse_349-6" data-name="Ellipse 349" cx="5" cy="5" r="5" transform="translate(-0.186 30)" fill="#8b3432"/>
        <circle id="Ellipse_350-6" data-name="Ellipse 350" cx="5" cy="5" r="5" transform="translate(14.814 30)" fill="#8b3432"/>
        <circle id="Ellipse_351-6" data-name="Ellipse 351" cx="5" cy="5" r="5" transform="translate(-0.186 45)" fill="#8b3432"/>
        <circle id="Ellipse_352-6" data-name="Ellipse 352" cx="5" cy="5" r="5" transform="translate(14.814 45)" fill="#8b3432"/>
        <circle id="Ellipse_353-6" data-name="Ellipse 353" cx="5" cy="5" r="5" transform="translate(-0.186 59)" fill="#8b3432"/>
        <circle id="Ellipse_354-6" data-name="Ellipse 354" cx="5" cy="5" r="5" transform="translate(14.814 59)" fill="#8b3432"/>
        <circle id="Ellipse_355-6" data-name="Ellipse 355" cx="5" cy="5" r="5" transform="translate(-0.186 74)" fill="#8b3432"/>
        <circle id="Ellipse_356-6" data-name="Ellipse 356" cx="5" cy="5" r="5" transform="translate(14.814 74)" fill="#8b3432"/>
      </g>
    </g>
  </g>
</svg>
