<svg xmlns="http://www.w3.org/2000/svg" width="172" height="173" viewBox="0 0 172 173">
  <g id="Group_2" data-name="Group 2" transform="translate(-555)">
    <g id="dots2" transform="translate(538 -779)">
      <g id="dots2-2" data-name="dots2" transform="translate(17 779)">
        <g id="dots2-3" data-name="dots2">
          <circle id="Ellipse_345" data-name="Ellipse 345" cx="5" cy="5" r="5" fill="#1b3a6c"/>
          <circle id="Ellipse_346" data-name="Ellipse 346" cx="5" cy="5" r="5" transform="translate(15)" fill="#1b3a6c"/>
          <circle id="Ellipse_347" data-name="Ellipse 347" cx="5" cy="5" r="5" transform="translate(0 15)" fill="#1b3a6c"/>
          <circle id="Ellipse_348" data-name="Ellipse 348" cx="5" cy="5" r="5" transform="translate(15 15)" fill="#1b3a6c"/>
          <circle id="Ellipse_349" data-name="Ellipse 349" cx="5" cy="5" r="5" transform="translate(0 30)" fill="#1b3a6c"/>
          <circle id="Ellipse_350" data-name="Ellipse 350" cx="5" cy="5" r="5" transform="translate(15 30)" fill="#1b3a6c"/>
          <circle id="Ellipse_351" data-name="Ellipse 351" cx="5" cy="5" r="5" transform="translate(0 45)" fill="#1b3a6c"/>
          <circle id="Ellipse_352" data-name="Ellipse 352" cx="5" cy="5" r="5" transform="translate(15 45)" fill="#1b3a6c"/>
          <circle id="Ellipse_353" data-name="Ellipse 353" cx="5" cy="5" r="5" transform="translate(0 59)" fill="#1b3a6c"/>
          <circle id="Ellipse_354" data-name="Ellipse 354" cx="5" cy="5" r="5" transform="translate(15 59)" fill="#1b3a6c"/>
          <circle id="Ellipse_355" data-name="Ellipse 355" cx="5" cy="5" r="5" transform="translate(0 74)" fill="#1b3a6c"/>
          <circle id="Ellipse_356" data-name="Ellipse 356" cx="5" cy="5" r="5" transform="translate(15 74)" fill="#1b3a6c"/>
        </g>
        <g id="dots2-4" data-name="dots2" transform="translate(29.239)">
          <circle id="Ellipse_345-2" data-name="Ellipse 345" cx="5" cy="5" r="5" transform="translate(-0.239)" fill="#1b3a6c"/>
          <circle id="Ellipse_346-2" data-name="Ellipse 346" cx="5" cy="5" r="5" transform="translate(14.761)" fill="#1b3a6c"/>
          <circle id="Ellipse_347-2" data-name="Ellipse 347" cx="5" cy="5" r="5" transform="translate(-0.239 15)" fill="#1b3a6c"/>
          <circle id="Ellipse_348-2" data-name="Ellipse 348" cx="5" cy="5" r="5" transform="translate(14.761 15)" fill="#1b3a6c"/>
          <circle id="Ellipse_349-2" data-name="Ellipse 349" cx="5" cy="5" r="5" transform="translate(-0.239 30)" fill="#1b3a6c"/>
          <circle id="Ellipse_350-2" data-name="Ellipse 350" cx="5" cy="5" r="5" transform="translate(14.761 30)" fill="#1b3a6c"/>
          <circle id="Ellipse_351-2" data-name="Ellipse 351" cx="5" cy="5" r="5" transform="translate(-0.239 45)" fill="#1b3a6c"/>
          <circle id="Ellipse_352-2" data-name="Ellipse 352" cx="5" cy="5" r="5" transform="translate(14.761 45)" fill="#1b3a6c"/>
          <circle id="Ellipse_353-2" data-name="Ellipse 353" cx="5" cy="5" r="5" transform="translate(-0.239 59)" fill="#1b3a6c"/>
          <circle id="Ellipse_354-2" data-name="Ellipse 354" cx="5" cy="5" r="5" transform="translate(14.761 59)" fill="#1b3a6c"/>
          <circle id="Ellipse_355-2" data-name="Ellipse 355" cx="5" cy="5" r="5" transform="translate(-0.239 74)" fill="#1b3a6c"/>
          <circle id="Ellipse_356-2" data-name="Ellipse 356" cx="5" cy="5" r="5" transform="translate(14.761 74)" fill="#1b3a6c"/>
        </g>
        <g id="dots2-5" data-name="dots2" transform="translate(58.478)">
          <circle id="Ellipse_345-3" data-name="Ellipse 345" cx="5" cy="5" r="5" transform="translate(-0.478)" fill="#1b3a6c"/>
          <circle id="Ellipse_346-3" data-name="Ellipse 346" cx="5" cy="5" r="5" transform="translate(14.522)" fill="#1b3a6c"/>
          <circle id="Ellipse_347-3" data-name="Ellipse 347" cx="5" cy="5" r="5" transform="translate(-0.478 15)" fill="#1b3a6c"/>
          <circle id="Ellipse_348-3" data-name="Ellipse 348" cx="5" cy="5" r="5" transform="translate(14.522 15)" fill="#1b3a6c"/>
          <circle id="Ellipse_349-3" data-name="Ellipse 349" cx="5" cy="5" r="5" transform="translate(-0.478 30)" fill="#1b3a6c"/>
          <circle id="Ellipse_350-3" data-name="Ellipse 350" cx="5" cy="5" r="5" transform="translate(14.522 30)" fill="#1b3a6c"/>
          <circle id="Ellipse_351-3" data-name="Ellipse 351" cx="5" cy="5" r="5" transform="translate(-0.478 45)" fill="#1b3a6c"/>
          <circle id="Ellipse_352-3" data-name="Ellipse 352" cx="5" cy="5" r="5" transform="translate(14.522 45)" fill="#1b3a6c"/>
          <circle id="Ellipse_353-3" data-name="Ellipse 353" cx="5" cy="5" r="5" transform="translate(-0.478 59)" fill="#1b3a6c"/>
          <circle id="Ellipse_354-3" data-name="Ellipse 354" cx="5" cy="5" r="5" transform="translate(14.522 59)" fill="#1b3a6c"/>
          <circle id="Ellipse_355-3" data-name="Ellipse 355" cx="5" cy="5" r="5" transform="translate(-0.478 74)" fill="#1b3a6c"/>
          <circle id="Ellipse_356-3" data-name="Ellipse 356" cx="5" cy="5" r="5" transform="translate(14.522 74)" fill="#1b3a6c"/>
        </g>
      </g>
      <g id="dots2-6" data-name="dots2" transform="translate(105.708 779)">
        <g id="dots2-7" data-name="dots2" transform="translate(0)">
          <circle id="Ellipse_345-4" data-name="Ellipse 345" cx="5" cy="5" r="5" transform="translate(0.292)" fill="#1b3a6c"/>
          <ellipse id="Ellipse_346-4" data-name="Ellipse 346" cx="4.5" cy="5" rx="4.5" ry="5" transform="translate(15.292)" fill="#1b3a6c"/>
          <circle id="Ellipse_347-4" data-name="Ellipse 347" cx="5" cy="5" r="5" transform="translate(0.292 15)" fill="#1b3a6c"/>
          <ellipse id="Ellipse_348-4" data-name="Ellipse 348" cx="4.5" cy="5" rx="4.5" ry="5" transform="translate(15.292 15)" fill="#1b3a6c"/>
          <circle id="Ellipse_349-4" data-name="Ellipse 349" cx="5" cy="5" r="5" transform="translate(0.292 30)" fill="#1b3a6c"/>
          <ellipse id="Ellipse_350-4" data-name="Ellipse 350" cx="4.5" cy="5" rx="4.5" ry="5" transform="translate(15.292 30)" fill="#1b3a6c"/>
          <circle id="Ellipse_351-4" data-name="Ellipse 351" cx="5" cy="5" r="5" transform="translate(0.292 45)" fill="#1b3a6c"/>
          <ellipse id="Ellipse_352-4" data-name="Ellipse 352" cx="4.5" cy="5" rx="4.5" ry="5" transform="translate(15.292 45)" fill="#1b3a6c"/>
          <circle id="Ellipse_353-4" data-name="Ellipse 353" cx="5" cy="5" r="5" transform="translate(0.292 59)" fill="#1b3a6c"/>
          <ellipse id="Ellipse_354-4" data-name="Ellipse 354" cx="4.5" cy="5" rx="4.5" ry="5" transform="translate(15.292 59)" fill="#1b3a6c"/>
          <circle id="Ellipse_355-4" data-name="Ellipse 355" cx="5" cy="5" r="5" transform="translate(0.292 74)" fill="#1b3a6c"/>
          <ellipse id="Ellipse_356-4" data-name="Ellipse 356" cx="4.5" cy="5" rx="4.5" ry="5" transform="translate(15.292 74)" fill="#1b3a6c"/>
        </g>
        <g id="dots2-8" data-name="dots2" transform="translate(29.239)">
          <circle id="Ellipse_345-5" data-name="Ellipse 345" cx="5" cy="5" r="5" transform="translate(0.053)" fill="#1b3a6c"/>
          <circle id="Ellipse_346-5" data-name="Ellipse 346" cx="5" cy="5" r="5" transform="translate(15.053)" fill="#1b3a6c"/>
          <circle id="Ellipse_347-5" data-name="Ellipse 347" cx="5" cy="5" r="5" transform="translate(0.053 15)" fill="#1b3a6c"/>
          <circle id="Ellipse_348-5" data-name="Ellipse 348" cx="5" cy="5" r="5" transform="translate(15.053 15)" fill="#1b3a6c"/>
          <circle id="Ellipse_349-5" data-name="Ellipse 349" cx="5" cy="5" r="5" transform="translate(0.053 30)" fill="#1b3a6c"/>
          <circle id="Ellipse_350-5" data-name="Ellipse 350" cx="5" cy="5" r="5" transform="translate(15.053 30)" fill="#1b3a6c"/>
          <circle id="Ellipse_351-5" data-name="Ellipse 351" cx="5" cy="5" r="5" transform="translate(0.053 45)" fill="#1b3a6c"/>
          <circle id="Ellipse_352-5" data-name="Ellipse 352" cx="5" cy="5" r="5" transform="translate(15.053 45)" fill="#1b3a6c"/>
          <circle id="Ellipse_353-5" data-name="Ellipse 353" cx="5" cy="5" r="5" transform="translate(0.053 59)" fill="#1b3a6c"/>
          <circle id="Ellipse_354-5" data-name="Ellipse 354" cx="5" cy="5" r="5" transform="translate(15.053 59)" fill="#1b3a6c"/>
          <circle id="Ellipse_355-5" data-name="Ellipse 355" cx="5" cy="5" r="5" transform="translate(0.053 74)" fill="#1b3a6c"/>
          <circle id="Ellipse_356-5" data-name="Ellipse 356" cx="5" cy="5" r="5" transform="translate(15.053 74)" fill="#1b3a6c"/>
        </g>
        <g id="dots2-9" data-name="dots2" transform="translate(58.478)">
          <circle id="Ellipse_345-6" data-name="Ellipse 345" cx="5" cy="5" r="5" transform="translate(-0.186)" fill="#1b3a6c"/>
          <circle id="Ellipse_346-6" data-name="Ellipse 346" cx="5" cy="5" r="5" transform="translate(14.814)" fill="#1b3a6c"/>
          <circle id="Ellipse_347-6" data-name="Ellipse 347" cx="5" cy="5" r="5" transform="translate(-0.186 15)" fill="#1b3a6c"/>
          <circle id="Ellipse_348-6" data-name="Ellipse 348" cx="5" cy="5" r="5" transform="translate(14.814 15)" fill="#1b3a6c"/>
          <circle id="Ellipse_349-6" data-name="Ellipse 349" cx="5" cy="5" r="5" transform="translate(-0.186 30)" fill="#1b3a6c"/>
          <circle id="Ellipse_350-6" data-name="Ellipse 350" cx="5" cy="5" r="5" transform="translate(14.814 30)" fill="#1b3a6c"/>
          <circle id="Ellipse_351-6" data-name="Ellipse 351" cx="5" cy="5" r="5" transform="translate(-0.186 45)" fill="#1b3a6c"/>
          <circle id="Ellipse_352-6" data-name="Ellipse 352" cx="5" cy="5" r="5" transform="translate(14.814 45)" fill="#1b3a6c"/>
          <circle id="Ellipse_353-6" data-name="Ellipse 353" cx="5" cy="5" r="5" transform="translate(-0.186 59)" fill="#1b3a6c"/>
          <circle id="Ellipse_354-6" data-name="Ellipse 354" cx="5" cy="5" r="5" transform="translate(14.814 59)" fill="#1b3a6c"/>
          <circle id="Ellipse_355-6" data-name="Ellipse 355" cx="5" cy="5" r="5" transform="translate(-0.186 74)" fill="#1b3a6c"/>
          <circle id="Ellipse_356-6" data-name="Ellipse 356" cx="5" cy="5" r="5" transform="translate(14.814 74)" fill="#1b3a6c"/>
        </g>
      </g>
    </g>
    <g id="dots2-10" data-name="dots2" transform="translate(538 -690)">
      <g id="dots2-11" data-name="dots2" transform="translate(17 779)">
        <g id="dots2-12" data-name="dots2">
          <circle id="Ellipse_345-7" data-name="Ellipse 345" cx="5" cy="5" r="5" fill="#1b3a6c"/>
          <circle id="Ellipse_346-7" data-name="Ellipse 346" cx="5" cy="5" r="5" transform="translate(15)" fill="#1b3a6c"/>
          <circle id="Ellipse_347-7" data-name="Ellipse 347" cx="5" cy="5" r="5" transform="translate(0 15)" fill="#1b3a6c"/>
          <circle id="Ellipse_348-7" data-name="Ellipse 348" cx="5" cy="5" r="5" transform="translate(15 15)" fill="#1b3a6c"/>
          <circle id="Ellipse_349-7" data-name="Ellipse 349" cx="5" cy="5" r="5" transform="translate(0 30)" fill="#1b3a6c"/>
          <circle id="Ellipse_350-7" data-name="Ellipse 350" cx="5" cy="5" r="5" transform="translate(15 30)" fill="#1b3a6c"/>
          <circle id="Ellipse_351-7" data-name="Ellipse 351" cx="5" cy="5" r="5" transform="translate(0 45)" fill="#1b3a6c"/>
          <circle id="Ellipse_352-7" data-name="Ellipse 352" cx="5" cy="5" r="5" transform="translate(15 45)" fill="#1b3a6c"/>
          <circle id="Ellipse_353-7" data-name="Ellipse 353" cx="5" cy="5" r="5" transform="translate(0 59)" fill="#1b3a6c"/>
          <circle id="Ellipse_354-7" data-name="Ellipse 354" cx="5" cy="5" r="5" transform="translate(15 59)" fill="#1b3a6c"/>
          <circle id="Ellipse_355-7" data-name="Ellipse 355" cx="5" cy="5" r="5" transform="translate(0 74)" fill="#1b3a6c"/>
          <circle id="Ellipse_356-7" data-name="Ellipse 356" cx="5" cy="5" r="5" transform="translate(15 74)" fill="#1b3a6c"/>
        </g>
        <g id="dots2-13" data-name="dots2" transform="translate(29.239)">
          <circle id="Ellipse_345-8" data-name="Ellipse 345" cx="5" cy="5" r="5" transform="translate(-0.239)" fill="#1b3a6c"/>
          <circle id="Ellipse_346-8" data-name="Ellipse 346" cx="5" cy="5" r="5" transform="translate(14.761)" fill="#1b3a6c"/>
          <circle id="Ellipse_347-8" data-name="Ellipse 347" cx="5" cy="5" r="5" transform="translate(-0.239 15)" fill="#1b3a6c"/>
          <circle id="Ellipse_348-8" data-name="Ellipse 348" cx="5" cy="5" r="5" transform="translate(14.761 15)" fill="#1b3a6c"/>
          <circle id="Ellipse_349-8" data-name="Ellipse 349" cx="5" cy="5" r="5" transform="translate(-0.239 30)" fill="#1b3a6c"/>
          <circle id="Ellipse_350-8" data-name="Ellipse 350" cx="5" cy="5" r="5" transform="translate(14.761 30)" fill="#1b3a6c"/>
          <circle id="Ellipse_351-8" data-name="Ellipse 351" cx="5" cy="5" r="5" transform="translate(-0.239 45)" fill="#1b3a6c"/>
          <circle id="Ellipse_352-8" data-name="Ellipse 352" cx="5" cy="5" r="5" transform="translate(14.761 45)" fill="#1b3a6c"/>
          <circle id="Ellipse_353-8" data-name="Ellipse 353" cx="5" cy="5" r="5" transform="translate(-0.239 59)" fill="#1b3a6c"/>
          <circle id="Ellipse_354-8" data-name="Ellipse 354" cx="5" cy="5" r="5" transform="translate(14.761 59)" fill="#1b3a6c"/>
          <circle id="Ellipse_355-8" data-name="Ellipse 355" cx="5" cy="5" r="5" transform="translate(-0.239 74)" fill="#1b3a6c"/>
          <circle id="Ellipse_356-8" data-name="Ellipse 356" cx="5" cy="5" r="5" transform="translate(14.761 74)" fill="#1b3a6c"/>
        </g>
        <g id="dots2-14" data-name="dots2" transform="translate(58.478)">
          <circle id="Ellipse_345-9" data-name="Ellipse 345" cx="5" cy="5" r="5" transform="translate(-0.478)" fill="#1b3a6c"/>
          <circle id="Ellipse_346-9" data-name="Ellipse 346" cx="5" cy="5" r="5" transform="translate(14.522)" fill="#1b3a6c"/>
          <circle id="Ellipse_347-9" data-name="Ellipse 347" cx="5" cy="5" r="5" transform="translate(-0.478 15)" fill="#1b3a6c"/>
          <circle id="Ellipse_348-9" data-name="Ellipse 348" cx="5" cy="5" r="5" transform="translate(14.522 15)" fill="#1b3a6c"/>
          <circle id="Ellipse_349-9" data-name="Ellipse 349" cx="5" cy="5" r="5" transform="translate(-0.478 30)" fill="#1b3a6c"/>
          <circle id="Ellipse_350-9" data-name="Ellipse 350" cx="5" cy="5" r="5" transform="translate(14.522 30)" fill="#1b3a6c"/>
          <circle id="Ellipse_351-9" data-name="Ellipse 351" cx="5" cy="5" r="5" transform="translate(-0.478 45)" fill="#1b3a6c"/>
          <circle id="Ellipse_352-9" data-name="Ellipse 352" cx="5" cy="5" r="5" transform="translate(14.522 45)" fill="#1b3a6c"/>
          <circle id="Ellipse_353-9" data-name="Ellipse 353" cx="5" cy="5" r="5" transform="translate(-0.478 59)" fill="#1b3a6c"/>
          <circle id="Ellipse_354-9" data-name="Ellipse 354" cx="5" cy="5" r="5" transform="translate(14.522 59)" fill="#1b3a6c"/>
          <circle id="Ellipse_355-9" data-name="Ellipse 355" cx="5" cy="5" r="5" transform="translate(-0.478 74)" fill="#1b3a6c"/>
          <circle id="Ellipse_356-9" data-name="Ellipse 356" cx="5" cy="5" r="5" transform="translate(14.522 74)" fill="#1b3a6c"/>
        </g>
      </g>
      <g id="dots2-15" data-name="dots2" transform="translate(105.708 779)">
        <g id="dots2-16" data-name="dots2" transform="translate(0)">
          <circle id="Ellipse_345-10" data-name="Ellipse 345" cx="5" cy="5" r="5" transform="translate(0.292)" fill="#1b3a6c"/>
          <ellipse id="Ellipse_346-10" data-name="Ellipse 346" cx="4.5" cy="5" rx="4.5" ry="5" transform="translate(15.292)" fill="#1b3a6c"/>
          <circle id="Ellipse_347-10" data-name="Ellipse 347" cx="5" cy="5" r="5" transform="translate(0.292 15)" fill="#1b3a6c"/>
          <ellipse id="Ellipse_348-10" data-name="Ellipse 348" cx="4.5" cy="5" rx="4.5" ry="5" transform="translate(15.292 15)" fill="#1b3a6c"/>
          <circle id="Ellipse_349-10" data-name="Ellipse 349" cx="5" cy="5" r="5" transform="translate(0.292 30)" fill="#1b3a6c"/>
          <ellipse id="Ellipse_350-10" data-name="Ellipse 350" cx="4.5" cy="5" rx="4.5" ry="5" transform="translate(15.292 30)" fill="#1b3a6c"/>
          <circle id="Ellipse_351-10" data-name="Ellipse 351" cx="5" cy="5" r="5" transform="translate(0.292 45)" fill="#1b3a6c"/>
          <ellipse id="Ellipse_352-10" data-name="Ellipse 352" cx="4.5" cy="5" rx="4.5" ry="5" transform="translate(15.292 45)" fill="#1b3a6c"/>
          <circle id="Ellipse_353-10" data-name="Ellipse 353" cx="5" cy="5" r="5" transform="translate(0.292 59)" fill="#1b3a6c"/>
          <ellipse id="Ellipse_354-10" data-name="Ellipse 354" cx="4.5" cy="5" rx="4.5" ry="5" transform="translate(15.292 59)" fill="#1b3a6c"/>
          <circle id="Ellipse_355-10" data-name="Ellipse 355" cx="5" cy="5" r="5" transform="translate(0.292 74)" fill="#1b3a6c"/>
          <ellipse id="Ellipse_356-10" data-name="Ellipse 356" cx="4.5" cy="5" rx="4.5" ry="5" transform="translate(15.292 74)" fill="#1b3a6c"/>
        </g>
        <g id="dots2-17" data-name="dots2" transform="translate(29.239)">
          <circle id="Ellipse_345-11" data-name="Ellipse 345" cx="5" cy="5" r="5" transform="translate(0.053)" fill="#1b3a6c"/>
          <circle id="Ellipse_346-11" data-name="Ellipse 346" cx="5" cy="5" r="5" transform="translate(15.053)" fill="#1b3a6c"/>
          <circle id="Ellipse_347-11" data-name="Ellipse 347" cx="5" cy="5" r="5" transform="translate(0.053 15)" fill="#1b3a6c"/>
          <circle id="Ellipse_348-11" data-name="Ellipse 348" cx="5" cy="5" r="5" transform="translate(15.053 15)" fill="#1b3a6c"/>
          <circle id="Ellipse_349-11" data-name="Ellipse 349" cx="5" cy="5" r="5" transform="translate(0.053 30)" fill="#1b3a6c"/>
          <circle id="Ellipse_350-11" data-name="Ellipse 350" cx="5" cy="5" r="5" transform="translate(15.053 30)" fill="#1b3a6c"/>
          <circle id="Ellipse_351-11" data-name="Ellipse 351" cx="5" cy="5" r="5" transform="translate(0.053 45)" fill="#1b3a6c"/>
          <circle id="Ellipse_352-11" data-name="Ellipse 352" cx="5" cy="5" r="5" transform="translate(15.053 45)" fill="#1b3a6c"/>
          <circle id="Ellipse_353-11" data-name="Ellipse 353" cx="5" cy="5" r="5" transform="translate(0.053 59)" fill="#1b3a6c"/>
          <circle id="Ellipse_354-11" data-name="Ellipse 354" cx="5" cy="5" r="5" transform="translate(15.053 59)" fill="#1b3a6c"/>
          <circle id="Ellipse_355-11" data-name="Ellipse 355" cx="5" cy="5" r="5" transform="translate(0.053 74)" fill="#1b3a6c"/>
          <circle id="Ellipse_356-11" data-name="Ellipse 356" cx="5" cy="5" r="5" transform="translate(15.053 74)" fill="#1b3a6c"/>
        </g>
        <g id="dots2-18" data-name="dots2" transform="translate(58.478)">
          <circle id="Ellipse_345-12" data-name="Ellipse 345" cx="5" cy="5" r="5" transform="translate(-0.186)" fill="#1b3a6c"/>
          <circle id="Ellipse_346-12" data-name="Ellipse 346" cx="5" cy="5" r="5" transform="translate(14.814)" fill="#1b3a6c"/>
          <circle id="Ellipse_347-12" data-name="Ellipse 347" cx="5" cy="5" r="5" transform="translate(-0.186 15)" fill="#1b3a6c"/>
          <circle id="Ellipse_348-12" data-name="Ellipse 348" cx="5" cy="5" r="5" transform="translate(14.814 15)" fill="#1b3a6c"/>
          <circle id="Ellipse_349-12" data-name="Ellipse 349" cx="5" cy="5" r="5" transform="translate(-0.186 30)" fill="#1b3a6c"/>
          <circle id="Ellipse_350-12" data-name="Ellipse 350" cx="5" cy="5" r="5" transform="translate(14.814 30)" fill="#1b3a6c"/>
          <circle id="Ellipse_351-12" data-name="Ellipse 351" cx="5" cy="5" r="5" transform="translate(-0.186 45)" fill="#1b3a6c"/>
          <circle id="Ellipse_352-12" data-name="Ellipse 352" cx="5" cy="5" r="5" transform="translate(14.814 45)" fill="#1b3a6c"/>
          <circle id="Ellipse_353-12" data-name="Ellipse 353" cx="5" cy="5" r="5" transform="translate(-0.186 59)" fill="#1b3a6c"/>
          <circle id="Ellipse_354-12" data-name="Ellipse 354" cx="5" cy="5" r="5" transform="translate(14.814 59)" fill="#1b3a6c"/>
          <circle id="Ellipse_355-12" data-name="Ellipse 355" cx="5" cy="5" r="5" transform="translate(-0.186 74)" fill="#1b3a6c"/>
          <circle id="Ellipse_356-12" data-name="Ellipse 356" cx="5" cy="5" r="5" transform="translate(14.814 74)" fill="#1b3a6c"/>
        </g>
      </g>
    </g>
  </g>
</svg>
