<svg xmlns="http://www.w3.org/2000/svg" width="15.287" height="15.284" viewBox="0 0 15.287 15.284">
  <path id="Icon_awesome-instagram" data-name="Icon awesome-instagram" d="M7.64,5.961a3.918,3.918,0,1,0,3.918,3.918A3.912,3.912,0,0,0,7.64,5.961Zm0,6.466a2.548,2.548,0,1,1,2.548-2.548A2.552,2.552,0,0,1,7.64,12.427ZM12.633,5.8a.914.914,0,1,1-.914-.914A.912.912,0,0,1,12.633,5.8Zm2.6.928a4.523,4.523,0,0,0-1.235-3.2,4.553,4.553,0,0,0-3.2-1.235c-1.262-.072-5.044-.072-6.306,0a4.546,4.546,0,0,0-3.2,1.231,4.538,4.538,0,0,0-1.235,3.2c-.072,1.262-.072,5.044,0,6.306a4.523,4.523,0,0,0,1.235,3.2,4.559,4.559,0,0,0,3.2,1.235c1.262.072,5.044.072,6.306,0a4.523,4.523,0,0,0,3.2-1.235,4.553,4.553,0,0,0,1.235-3.2c.072-1.262.072-5.041,0-6.3ZM13.6,14.385a2.579,2.579,0,0,1-1.453,1.453,16.844,16.844,0,0,1-4.505.307,16.975,16.975,0,0,1-4.505-.307,2.579,2.579,0,0,1-1.453-1.453,16.844,16.844,0,0,1-.307-4.505,16.975,16.975,0,0,1,.307-4.505A2.579,2.579,0,0,1,3.135,3.922,16.844,16.844,0,0,1,7.64,3.615a16.975,16.975,0,0,1,4.505.307A2.579,2.579,0,0,1,13.6,5.374,16.844,16.844,0,0,1,13.9,9.879,16.834,16.834,0,0,1,13.6,14.385Z" transform="translate(0.005 -2.238)" fill="#002142"/>
</svg>
